<svg width="60" height="60" fill="none" xmlns="http://www.w3.org/2000/svg"><circle cx="30" cy="30" r="30" fill="#FE9E88"/><path d="M21.072 30.129v9.855c0 .225.182.407.407.407h2.02c2.05 0 4.088.297 6.053.882l.023.007c2.893.857 7.422.587 10.242-.12.987-.247 1.813-.771 1.813-1.634v-.354a1.543 1.543 0 0 0-1.524-1.561h1.298a1.544 1.544 0 0 0 1.524-1.562v-.354a1.543 1.543 0 0 0-1.524-1.562h1.062a1.544 1.544 0 0 0 1.524-1.561v-.354c0-.863-.601-1.451-1.524-1.562l-1.082-.13a1.453 1.453 0 0 0 1.544-1.432v-.354a1.691 1.691 0 0 0-1.5-1.657c-1.546-.2-2.741.07-3.831.103-3.324.104-3.232-.387-3.264-.653-.04-.324.108-.712.627-1.412 1.007-1.587 1.622-2.074 1.79-4.18a6.688 6.688 0 0 0-.779-3.616 1.969 1.969 0 0 0-1.49-1.066c-.551-.057-1.218.154-1.347.772.114.647.133 1.307.057 1.96a8.565 8.565 0 0 1-2.785 3.306c-2.469 1.65-4.018 2.1-5.912 4.25a8.896 8.896 0 0 0-1.392 2.122 1.798 1.798 0 0 1-1.623 1.052.408.408 0 0 0-.407.408ZM17.797 42.5a2.046 2.046 0 0 0 2.046-2.046V29.659a2.047 2.047 0 0 0-4.093 0v10.795a2.046 2.046 0 0 0 2.046 2.046Z" fill="#fff"/></svg>