<svg width="60" height="60" fill="none" xmlns="http://www.w3.org/2000/svg"><circle cx="30" cy="30" r="30" fill="#FEC188"/><path d="m37.531 41.622-7.398-3.92-7.281 4.153 1.277-8.573-6.026-5.962 8.188-1.378 3.557-7.838 3.783 7.721 8.224 1.118-5.85 6.15 1.526 8.529Z" fill="#fff"/><path fill-rule="evenodd" clip-rule="evenodd" d="M29.835 17.235a.869.869 0 0 1 .794.486l3.579 7.305 7.764 1.055a.869.869 0 0 1 .513 1.46l-5.547 5.832 1.449 8.096a.869.869 0 0 1-1.263.92l-6.976-3.696-6.866 3.917a.87.87 0 0 1-1.29-.883l1.213-8.138-5.713-5.652a.87.87 0 0 1 .467-1.474l7.732-1.302 3.366-7.417a.869.869 0 0 1 .779-.51Zm.043 2.905-2.795 6.16a.87.87 0 0 1-.647.499l-6.515 1.096 4.82 4.769c.196.194.289.471.248.745l-1.014 6.805 5.727-3.268a.87.87 0 0 1 .838-.013l5.822 3.086-1.212-6.773a.87.87 0 0 1 .226-.752l4.679-4.92-6.54-.888a.869.869 0 0 1-.664-.479l-2.973-6.067Z" fill="#fff"/></svg>