<svg width="60" height="60" fill="none" xmlns="http://www.w3.org/2000/svg"><circle cx="30" cy="30" r="30" fill="#69C6CC"/><path fill-rule="evenodd" clip-rule="evenodd" d="m32.928 20.934 1.416.566 2.267-1.7c.472-.283 1.039-.189 1.322.095l2.078 2.078c.378.377.378.944.094 1.322l-1.605 2.36.566 1.417 2.834.473c.472 0 .85.472.85.944v2.928c0 .472-.378.944-.85 1.039l-2.834.472-.566 1.417 1.7 2.266c.283.472.189 1.04-.095 1.322l-2.077 2.078a1.011 1.011 0 0 1-1.323.094l-2.36-1.605-1.417.567-.472 2.833c-.095.472-.567.85-1.04.85H28.49c-.472 0-.945-.378-.945-.85l-.472-2.833-1.416-.567-2.362 1.605a1.011 1.011 0 0 1-1.322-.094l-2.077-2.078c-.284-.283-.378-.85-.095-1.227l1.7-2.362a4.452 4.452 0 0 1-.567-1.416l-2.833-.472c-.472-.095-.85-.567-.85-1.04V28.49c0-.472.378-.945.85-.945l2.833-.472c.095-.567.284-.944.567-1.416l-1.7-2.361c-.283-.378-.189-.945.19-1.323l2.077-2.077c.283-.284.85-.378 1.228-.095l2.36 1.7 1.417-.567.473-2.833c0-.472.472-.85.944-.85h2.928c.472 0 .944.378 1.039.85l.472 2.833ZM30 24.617c-2.928 0-5.383 2.456-5.383 5.383 0 2.928 2.455 5.383 5.383 5.383s5.383-2.455 5.383-5.383c0-2.927-2.455-5.383-5.383-5.383Z" fill="#fff"/></svg>