<svg width="60" height="60" fill="none" xmlns="http://www.w3.org/2000/svg"><circle cx="30" cy="30" r="30" fill="#56CABC"/><path fill-rule="evenodd" clip-rule="evenodd" d="m39.218 20.519-9.233-3.858-9.225 3.858a3.108 3.108 0 0 0-1.884 3.208l1.008 8.584a11.418 11.418 0 0 0 5.426 8.383l4.166 2.5a1.033 1.033 0 0 0 1.058 0l4.167-2.5a11.416 11.416 0 0 0 5.425-8.383l1.008-8.584a3.092 3.092 0 0 0-1.916-3.208Zm-8.85 12.042a.983.983 0 0 1-.675.258 1.041 1.041 0 0 1-.642-.217l-3.8-3.016 1.275-1.617 3.117 2.5 4.6-4.108 1.367 1.533-5.242 4.667Z" fill="#fff"/></svg>