{"asset":{"version":"2.0","generator":"babylon.js glTF exporter for 3dsmax 2022 v20220628.14"},"scene":0,"scenes":[{"nodes":[0]}],"nodes":[{"children":[1,2,3,4,5,6,7,8,9,10,11,12,13,14,15,16],"translation":[1.3732911E-07,0.0,0.0],"name":"Group001"},{"mesh":0,"translation":[-0.00092860416,0.0,0.0423567221],"name":"Line003"},{"mesh":1,"translation":[-0.000622695952,0.235450953,-0.1300936],"name":"Line008"},{"mesh":2,"translation":[-6.25610369E-07,0.09737179,-0.156153753],"name":"Line009"},{"mesh":3,"translation":[0.211855352,0.13625969,-0.1042305],"name":"Cylinder003"},{"mesh":4,"translation":[-0.2338971,0.00358898938,0.00821457],"name":"Shape002"},{"mesh":5,"translation":[0.232976213,0.00480078161,0.007214142],"rotation":[-8.742278E-08,0.0,0.0,1.0],"name":"Shape003"},{"mesh":6,"translation":[-0.22672376,0.2512917,-0.103404179],"name":"Shape004"},{"mesh":7,"translation":[0.22672084,0.253357083,-0.104755558],"rotation":[-8.742278E-08,0.0,0.0,1.0],"name":"Shape005"},{"mesh":8,"translation":[-0.194875613,0.00387756363,-0.107281208],"name":"Shape006"},{"mesh":9,"translation":[0.194806769,0.003987534,-0.10709177],"rotation":[-8.742278E-08,0.0,0.0,1.0],"name":"Shape007"},{"mesh":10,"translation":[-0.000482070958,-0.00162248232,-0.106316909],"name":"Box006"},{"mesh":11,"translation":[0.183746219,-0.0007302094,-0.106690921],"rotation":[0.0,-8.742278E-08,0.0,1.0],"name":"Shape008"},{"mesh":12,"translation":[-0.18579115,-0.0007302094,-0.106690921],"rotation":[-8.742278E-08,-8.742278E-08,-7.642742E-15,1.0],"name":"Shape009"},{"mesh":13,"translation":[0.194360971,0.0177240614,-0.109736666],"name":"Shape010"},{"mesh":14,"translation":[-0.193981573,0.0177240614,-0.109736666],"rotation":[-8.742278E-08,0.0,0.0,1.0],"name":"Shape011"},{"mesh":15,"translation":[-0.21143797,0.13625969,-0.1042305],"rotation":[-8.742278E-08,0.0,0.0,1.0],"name":"Cylinder004"}],"meshes":[{"primitives":[{"attributes":{"POSITION":1,"NORMAL":2,"TEXCOORD_0":3},"indices":0}],"name":"Line003"},{"primitives":[{"attributes":{"POSITION":5,"NORMAL":6,"TEXCOORD_0":7},"indices":4}],"name":"Line008"},{"primitives":[{"attributes":{"POSITION":9,"NORMAL":10,"TEXCOORD_0":11},"indices":8}],"name":"Line009"},{"primitives":[{"attributes":{"POSITION":13,"NORMAL":14,"TEXCOORD_0":15},"indices":12}],"name":"Cylinder003"},{"primitives":[{"attributes":{"POSITION":17,"NORMAL":18},"indices":16}],"name":"Shape002"},{"primitives":[{"attributes":{"POSITION":20,"NORMAL":21},"indices":19}],"name":"Shape003"},{"primitives":[{"attributes":{"POSITION":23,"NORMAL":24},"indices":22}],"name":"Shape004"},{"primitives":[{"attributes":{"POSITION":26,"NORMAL":27},"indices":25}],"name":"Shape005"},{"primitives":[{"attributes":{"POSITION":29,"NORMAL":30},"indices":28}],"name":"Shape006"},{"primitives":[{"attributes":{"POSITION":32,"NORMAL":33},"indices":31}],"name":"Shape007"},{"primitives":[{"attributes":{"POSITION":35,"NORMAL":36,"TEXCOORD_0":37},"indices":34}],"name":"Box006"},{"primitives":[{"attributes":{"POSITION":39,"NORMAL":40},"indices":38}],"name":"Shape008"},{"primitives":[{"attributes":{"POSITION":42,"NORMAL":43},"indices":41}],"name":"Shape009"},{"primitives":[{"attributes":{"POSITION":45,"NORMAL":46},"indices":44}],"name":"Shape010"},{"primitives":[{"attributes":{"POSITION":48,"NORMAL":49},"indices":47}],"name":"Shape011"},{"primitives":[{"attributes":{"POSITION":51,"NORMAL":52,"TEXCOORD_0":53},"indices":50}],"name":"Cylinder004"}],"accessors":[{"bufferView":0,"componentType":5123,"count":4968,"type":"SCALAR","name":"accessorIndices"},{"bufferView":1,"componentType":5126,"count":912,"max":[0.241265208,0.008000003,0.2376236],"min":[-0.241265267,-0.008000003,-0.237601086],"type":"VEC3","name":"accessorPositions"},{"bufferView":1,"byteOffset":10944,"componentType":5126,"count":912,"type":"VEC3","name":"accessorNormals"},{"bufferView":2,"componentType":5126,"count":912,"type":"VEC2","name":"accessorUVs"},{"bufferView":0,"byteOffset":9936,"componentType":5123,"count":4956,"type":"SCALAR","name":"accessorIndices"},{"bufferView":1,"byteOffset":21888,"componentType":5126,"count":921,"max":[0.242713153,0.2382595,0.149886727],"min":[-0.2427131,-0.2382595,-0.149886727],"type":"VEC3","name":"accessorPositions"},{"bufferView":1,"byteOffset":32940,"componentType":5126,"count":921,"type":"VEC3","name":"accessorNormals"},{"bufferView":2,"byteOffset":7296,"componentType":5126,"count":921,"type":"VEC2","name":"accessorUVs"},{"bufferView":0,"byteOffset":19848,"componentType":5123,"count":6036,"type":"SCALAR","name":"accessorIndices"},{"bufferView":1,"byteOffset":43992,"componentType":5126,"count":1116,"max":[0.203478247,0.103321157,0.0591477156],"min":[-0.203478366,-0.103321165,-0.059147723],"type":"VEC3","name":"accessorPositions"},{"bufferView":1,"byteOffset":57384,"componentType":5126,"count":1116,"type":"VEC3","name":"accessorNormals"},{"bufferView":2,"byteOffset":14664,"componentType":5126,"count":1116,"type":"VEC2","name":"accessorUVs"},{"bufferView":0,"byteOffset":31920,"componentType":5123,"count":636,"type":"SCALAR","name":"accessorIndices"},{"bufferView":1,"byteOffset":70776,"componentType":5126,"count":150,"max":[0.0248390231,0.137244344,0.007878475],"min":[-0.024839079,-0.137244388,-0.007878475],"type":"VEC3","name":"accessorPositions"},{"bufferView":1,"byteOffset":72576,"componentType":5126,"count":150,"type":"VEC3","name":"accessorNormals"},{"bufferView":2,"byteOffset":23592,"componentType":5126,"count":150,"type":"VEC2","name":"accessorUVs"},{"bufferView":0,"byteOffset":33192,"componentType":5123,"count":2448,"type":"SCALAR","name":"accessorIndices"},{"bufferView":1,"byteOffset":74376,"componentType":5126,"count":408,"max":[0.0105447043,0.006825165,0.0117142648],"min":[-0.0105445711,-0.00682522636,-0.0117142489],"type":"VEC3","name":"accessorPositions"},{"bufferView":1,"byteOffset":79272,"componentType":5126,"count":408,"type":"VEC3","name":"accessorNormals"},{"bufferView":0,"byteOffset":38088,"componentType":5123,"count":2592,"type":"SCALAR","name":"accessorIndices"},{"bufferView":1,"byteOffset":84168,"componentType":5126,"count":432,"max":[0.0114654852,0.00780813629,0.01171428],"min":[-0.0114654116,-0.007808106,-0.011714234],"type":"VEC3","name":"accessorPositions"},{"bufferView":1,"byteOffset":89352,"componentType":5126,"count":432,"type":"VEC3","name":"accessorNormals"},{"bufferView":0,"byteOffset":43272,"componentType":5123,"count":15480,"type":"SCALAR","name":"accessorIndices"},{"bufferView":1,"byteOffset":94536,"componentType":5126,"count":2580,"max":[0.009387498,0.0199691169,0.0112651521],"min":[-0.009387638,-0.019969102,-0.0112651512],"type":"VEC3","name":"accessorPositions"},{"bufferView":1,"byteOffset":125496,"componentType":5126,"count":2580,"type":"VEC3","name":"accessorNormals"},{"bufferView":0,"byteOffset":74232,"componentType":5123,"count":17280,"type":"SCALAR","name":"accessorIndices"},{"bufferView":1,"byteOffset":156456,"componentType":5126,"count":2880,"max":[0.009397561,0.0199691169,0.0112651484],"min":[-0.00939763,-0.019969102,-0.011265181],"type":"VEC3","name":"accessorPositions"},{"bufferView":1,"byteOffset":191016,"componentType":5126,"count":2880,"type":"VEC3","name":"accessorNormals"},{"bufferView":0,"byteOffset":108792,"componentType":5123,"count":22320,"type":"SCALAR","name":"accessorIndices"},{"bufferView":1,"byteOffset":225576,"componentType":5126,"count":3720,"max":[0.0118389567,0.00740407966,0.0125000589],"min":[-0.0118391132,-0.00740407966,-0.01250006],"type":"VEC3","name":"accessorPositions"},{"bufferView":1,"byteOffset":270216,"componentType":5126,"count":3720,"type":"VEC3","name":"accessorNormals"},{"bufferView":0,"byteOffset":153432,"componentType":5123,"count":21600,"type":"SCALAR","name":"accessorIndices"},{"bufferView":1,"byteOffset":314856,"componentType":5126,"count":4074,"max":[0.0126430169,0.0107222674,0.0109960716],"min":[-0.0126429684,-0.010722273,-0.0109960856],"type":"VEC3","name":"accessorPositions"},{"bufferView":1,"byteOffset":363744,"componentType":5126,"count":4074,"type":"VEC3","name":"accessorNormals"},{"bufferView":0,"byteOffset":196632,"componentType":5123,"count":36,"type":"SCALAR","name":"accessorIndices"},{"bufferView":1,"byteOffset":412632,"componentType":5126,"count":24,"max":[0.193170324,0.00320587168,0.00849761348],"min":[-0.193170324,-0.00320587168,-0.00849761348],"type":"VEC3","name":"accessorPositions"},{"bufferView":1,"byteOffset":412920,"componentType":5126,"count":24,"type":"VEC3","name":"accessorNormals"},{"bufferView":2,"byteOffset":24792,"componentType":5126,"count":24,"type":"VEC2","name":"accessorUVs"},{"bufferView":0,"byteOffset":196704,"componentType":5123,"count":8640,"type":"SCALAR","name":"accessorIndices"},{"bufferView":1,"byteOffset":413208,"componentType":5126,"count":1440,"max":[0.0099646,0.00598200737,0.0104160821],"min":[-0.00996469148,-0.00598200737,-0.0104160551],"type":"VEC3","name":"accessorPositions"},{"bufferView":1,"byteOffset":430488,"componentType":5126,"count":1440,"type":"VEC3","name":"accessorNormals"},{"bufferView":0,"byteOffset":213984,"componentType":5123,"count":8640,"type":"SCALAR","name":"accessorIndices"},{"bufferView":1,"byteOffset":447768,"componentType":5126,"count":1440,"max":[0.00996469148,0.00598200364,0.0104160411],"min":[-0.0099646,-0.00598200224,-0.0104160756],"type":"VEC3","name":"accessorPositions"},{"bufferView":1,"byteOffset":465048,"componentType":5126,"count":1440,"type":"VEC3","name":"accessorNormals"},{"bufferView":0,"byteOffset":231264,"componentType":5123,"count":3240,"type":"SCALAR","name":"accessorIndices"},{"bufferView":1,"byteOffset":482328,"componentType":5126,"count":540,"max":[0.009715577,0.0169787221,0.00675505865],"min":[-0.009715515,-0.0169787146,-0.00675505865],"type":"VEC3","name":"accessorPositions"},{"bufferView":1,"byteOffset":488808,"componentType":5126,"count":540,"type":"VEC3","name":"accessorNormals"},{"bufferView":0,"byteOffset":237744,"componentType":5123,"count":3240,"type":"SCALAR","name":"accessorIndices"},{"bufferView":1,"byteOffset":495288,"componentType":5126,"count":540,"max":[0.009715515,0.0169787221,0.006755074],"min":[-0.009715577,-0.0169787146,-0.006755066],"type":"VEC3","name":"accessorPositions"},{"bufferView":1,"byteOffset":501768,"componentType":5126,"count":540,"type":"VEC3","name":"accessorNormals"},{"bufferView":0,"byteOffset":244224,"componentType":5123,"count":636,"type":"SCALAR","name":"accessorIndices"},{"bufferView":1,"byteOffset":508248,"componentType":5126,"count":150,"max":[0.024839079,0.137244344,0.007878528],"min":[-0.0248390231,-0.137244388,-0.007878528],"type":"VEC3","name":"accessorPositions"},{"bufferView":1,"byteOffset":510048,"componentType":5126,"count":150,"type":"VEC3","name":"accessorNormals"},{"bufferView":2,"byteOffset":24984,"componentType":5126,"count":150,"type":"VEC2","name":"accessorUVs"}],"bufferViews":[{"buffer":0,"byteLength":245496,"name":"bufferViewScalar"},{"buffer":0,"byteOffset":245496,"byteLength":511848,"byteStride":12,"name":"bufferViewFloatVec3"},{"buffer":0,"byteOffset":757344,"byteLength":26184,"byteStride":8,"name":"bufferViewFloatVec2"}],"buffers":[{"uri":"mallin.bin","byteLength":783528}]}