<svg width="24" height="24" fill="none" xmlns="http://www.w3.org/2000/svg"><path d="M18.272 8.426v-2.97c0-.041-.003-.081-.008-.121l-.008-.04a.871.871 0 0 0-.017-.077l-.007-.024-5.784 3.213v6.787l5.329-2.665a.895.895 0 0 0 .495-.802v-1.335c1.698.85 2.688 1.998 2.688 3.155 0 1.293-1.232 2.563-3.272 3.425-.456.192-.712.696-.555 1.165.156.47.666.727 1.124.54 2.833-1.16 4.495-3.037 4.495-5.13 0-2.087-1.633-3.95-4.48-5.121Z" fill="#001110"/><path d="M11.328 16.088a.9.9 0 0 0-1.267 1.267l.62.62c-4.259-.33-7.641-2.223-7.641-4.428 0-1.163.99-2.305 2.688-3.155v1.335a.896.896 0 0 0 .495.802l5.329 2.664V8.407L5.769 5.194l-.008.024a.893.893 0 0 0-.017.077c-.002.013-.006.026-.007.04a.901.901 0 0 0-.009.12v2.973c-2.81 1.158-4.48 3.056-4.48 5.119 0 3.291 4.137 5.915 9.61 6.238l-.613.642c-.974.97.41 2.178 1.307 1.226l1.997-2.117a.896.896 0 0 0-.02-1.247l-2.201-2.2ZM17.556 4.544l-5.155-2.578a.896.896 0 0 0-.802 0L6.443 4.544 12 7.631l5.556-3.087Z" fill="#001110"/></svg>