<svg width="24" height="24" fill="none" xmlns="http://www.w3.org/2000/svg"><path d="M19.436 9.301c-.33-3.174-3.179-5.665-6.686-5.665-2.715 0-5.039 1.495-6.11 3.639a3.562 3.562 0 0 0-1.015-.16c-1.864 0-3.375 1.402-3.375 3.13 0 .344.074.669.185.977C.985 12.006 0 13.445 0 15.113c0 2.498 2.183 4.522 4.875 4.522v.002h13.501v-.002c3.108 0 5.624-2.335 5.624-5.217 0-2.544-1.965-4.656-4.564-5.117Zm-3.86 4.508-2.836 2.593c-.572.532-.925.514-1.48 0l-2.836-2.593c-.407-.616-.074-1.12.74-1.12H10.5V9.9c0-.385.336-.697.75-.697h1.5c.415 0 .75.312.75.697v2.79h1.334c.815 0 1.15.504.742 1.12Z" fill="#001110"/></svg>