<svg width="80" height="80" fill="none" xmlns="http://www.w3.org/2000/svg"><g clip-path="url(#a)" fill="#001110"><path d="M20.44 59.28a1.59 1.59 0 0 0-1.95-1.104l-5.689 1.58a1.59 1.59 0 0 0-1.103 1.95l1.579 5.688a1.589 1.589 0 0 0 1.951 1.103l5.688-1.578a1.59 1.59 0 0 0 1.104-1.952l-1.58-5.687ZM76.948 14.795 27.95 4.425a3.864 3.864 0 0 0-4.566 2.973l-.93 5.982 56.533 11.963.93-5.982a3.864 3.864 0 0 0-2.97-4.566Z"/><path d="M56.341 26.613a3.9 3.9 0 0 0-4.786-2.707l-9.301 2.582-21.927-4.64-2.412 11.394-15.067 4.181A3.9 3.9 0 0 0 .14 42.21l8.491 30.599a3.9 3.9 0 0 0 4.787 2.707l48.707-13.517a3.9 3.9 0 0 0 2.707-4.786l-1.458-5.253 5.463 1.155a3.863 3.863 0 0 0 4.566-2.971L76.86 33.81l-19.677-4.164-.842-3.034Zm5.626 15.552 1.204-5.693a1.59 1.59 0 0 1 1.878-1.222l5.694 1.205a1.59 1.59 0 0 1 1.223 1.879l-1.205 5.693a1.59 1.59 0 0 1-1.878 1.222l-5.693-1.205a1.59 1.59 0 0 1-1.223-1.879ZM3.695 40.477l13.48-3.74 31.804-8.825 3.422-.951a.735.735 0 0 1 .884.5l.402 1.447 1.26 4.537-50.091 13.9-1.66-5.983a.729.729 0 0 1 .5-.885Zm58.083 17.581a.707.707 0 0 1-.07.544.7.7 0 0 1-.43.341L12.572 72.46a.706.706 0 0 1-.186.026.736.736 0 0 1-.699-.526L6.735 54.112l50.09-13.9 3.055 11.007 1.898 6.84Z"/></g><defs><clipPath id="a"><path fill="#fff" d="M0 0h80v80H0z"/></clipPath></defs></svg>