<svg width="30" height="30" fill="none" xmlns="http://www.w3.org/2000/svg"><path d="M25.254 17.883c-.654-.679-1.444-1.042-2.281-1.042-.83 0-1.627.357-2.309 1.035l-2.133 2.117c-.176-.094-.351-.181-.52-.268a8.635 8.635 0 0 1-.668-.357c-1.998-1.263-3.814-2.91-5.556-5.04-.844-1.062-1.41-1.956-1.822-2.863.553-.504 1.066-1.028 1.566-1.532.189-.188.378-.383.567-.571 1.417-1.412 1.417-3.24 0-4.651l-1.843-1.835c-.21-.208-.426-.423-.628-.638-.405-.417-.83-.847-1.27-1.25C7.704.343 6.92 0 6.098 0 5.272 0 4.476.343 3.8.988L3.788 1 1.493 3.306A4.907 4.907 0 0 0 .028 6.431c-.162 1.963.418 3.79.864 4.987 1.093 2.937 2.727 5.659 5.164 8.575 2.957 3.515 6.514 6.29 10.578 8.246 1.553.733 3.625 1.6 5.94 1.748.142.006.29.013.426.013 1.56 0 2.869-.558 3.895-1.667.006-.013.02-.02.027-.033.35-.424.756-.807 1.181-1.217.29-.275.587-.564.878-.867.668-.692 1.019-1.498 1.019-2.325 0-.833-.358-1.633-1.04-2.305l-3.706-3.703Zm2.417 7.077c-.007 0-.007.006 0 0-.263.282-.533.537-.823.82-.44.416-.885.853-1.303 1.344-.682.726-1.485 1.068-2.539 1.068-.1 0-.209 0-.31-.006-2.005-.128-3.868-.908-5.265-1.573-3.821-1.841-7.176-4.456-9.964-7.769-2.302-2.762-3.841-5.316-4.86-8.058-.628-1.673-.858-2.977-.757-4.207a3.08 3.08 0 0 1 .932-1.996l2.302-2.291c.33-.31.682-.477 1.026-.477.425 0 .77.255.986.47l.02.02c.412.383.803.78 1.215 1.203.21.215.425.43.641.652l1.843 1.835c.716.712.716 1.37 0 2.083-.196.195-.385.39-.58.578a35.146 35.146 0 0 1-1.695 1.64c-.013.013-.027.02-.034.033-.58.578-.472 1.143-.35 1.526l.02.06c.479 1.156 1.154 2.245 2.18 3.542l.007.007c1.863 2.285 3.827 4.066 5.994 5.43.277.175.56.316.83.45.244.121.473.235.669.356.027.014.054.034.08.047.23.115.446.168.67.168.56 0 .91-.35 1.025-.463l2.309-2.299c.23-.228.594-.504 1.02-.504.418 0 .762.262.971.49l.014.014 3.72 3.703c.695.686.695 1.391.006 2.104Z" fill="#fff"/></svg>