<svg width="123" height="42" fill="none" xmlns="http://www.w3.org/2000/svg"><path fill-rule="evenodd" clip-rule="evenodd" d="M13.49 0v10.564l10.358 6.215v10.5l-9.201 5.888 9.818 5.61-1.234 2.159-10.965-6.266L1.29 41.334 0 39.209l9.842-5.976-9.611-5.775V7.65L13.489 0Zm0 30.956 7.872-5.038v-7.732l-10.358-6.215V4.304L2.716 9.085v7.754l10.772 6.136v7.981ZM2.716 19.7v6.352l8.287 4.979v-6.61L2.716 19.7Z" fill="#fff"/><path d="m45.672 21.143-4.388-6.495 2.223-1.36 5.288 7.855h-3.123Zm-8.794 0V7.73h2.701v13.412h-2.701Zm1.896-5.557v-2.318h4.58v2.318h-4.58Zm4.982-.843-2.53-.325L45.73 7.73h2.893l-4.866 7.012ZM49.72 21.143 55.734 7.73h2.702l6.035 13.412h-2.874L56.52 9.168h1.092l-5.077 11.975h-2.817Zm2.873-3.008.728-2.127h7.108l.747 2.127h-8.583ZM66.242 21.143V7.73h5.614c1.2 0 2.229.192 3.084.575.856.383 1.514.939 1.974 1.667.472.715.709 1.57.709 2.567 0 .984-.237 1.84-.71 2.568-.46.715-1.117 1.264-1.973 1.647-.855.383-1.884.575-3.084.575h-4.1l1.226-1.245v5.058h-2.74Zm2.74-4.77-1.226-1.304h3.985c1.034 0 1.813-.223 2.337-.67.524-.447.786-1.067.786-1.859 0-.804-.262-1.424-.786-1.858-.524-.447-1.303-.67-2.337-.67h-3.985l1.226-1.323v7.683ZM88.178 21.143l-4.388-6.495 2.223-1.36 5.288 7.855h-3.123Zm-8.794 0V7.73h2.701v13.412h-2.701Zm1.896-5.557v-2.318h4.58v2.318h-4.58Zm4.982-.843-2.53-.325 4.503-6.687h2.893l-4.866 7.012ZM93.02 21.143 99.035 7.73h2.701l6.035 13.412h-2.874L99.821 9.168h1.092l-5.077 11.975h-2.817Zm2.873-3.008.728-2.127h7.109l.747 2.127h-8.584ZM115.013 21.354c-1.034 0-1.992-.167-2.874-.499a6.975 6.975 0 0 1-2.28-1.456 6.64 6.64 0 0 1-1.513-2.184c-.358-.843-.537-1.769-.537-2.778 0-1.01.179-1.929.537-2.759a6.587 6.587 0 0 1 1.513-2.203 6.677 6.677 0 0 1 2.3-1.437c.881-.345 1.839-.517 2.873-.517 1.124 0 2.146.197 3.066.593a5.93 5.93 0 0 1 2.318 1.706l-1.763 1.647a4.607 4.607 0 0 0-1.59-1.168 4.431 4.431 0 0 0-1.897-.403c-.676 0-1.296.109-1.858.326a4.187 4.187 0 0 0-1.437.939 4.375 4.375 0 0 0-.958 1.456 4.667 4.667 0 0 0-.345 1.82c0 .664.115 1.277.345 1.84.23.549.549 1.027.958 1.436.409.409.888.722 1.437.939a5.118 5.118 0 0 0 1.858.326c.69 0 1.322-.128 1.897-.384a4.73 4.73 0 0 0 1.59-1.207l1.763 1.648a6.102 6.102 0 0 1-2.318 1.724c-.92.396-1.948.595-3.085.595ZM43.123 38.901c-1.034 0-1.992-.166-2.873-.498a6.964 6.964 0 0 1-2.28-1.456 6.647 6.647 0 0 1-1.514-2.184c-.358-.843-.536-1.769-.536-2.778 0-1.01.178-1.929.536-2.759a6.594 6.594 0 0 1 3.813-3.64c.881-.345 1.84-.517 2.874-.517 1.124 0 2.145.197 3.065.593.92.384 1.693.952 2.318 1.706l-1.762 1.647a4.62 4.62 0 0 0-1.59-1.169 4.43 4.43 0 0 0-1.897-.402c-.677 0-1.297.109-1.859.326-.549.217-1.028.53-1.437.939a4.377 4.377 0 0 0-.958 1.456 4.668 4.668 0 0 0-.344 1.82c0 .664.115 1.277.344 1.84.23.548.55 1.027.958 1.436.41.409.888.722 1.437.939a5.115 5.115 0 0 0 1.859.326 4.62 4.62 0 0 0 1.897-.384 4.743 4.743 0 0 0 1.59-1.207l1.762 1.648a6.106 6.106 0 0 1-2.318 1.724c-.92.396-1.948.594-3.084.594ZM54.022 38.69V26.909l.651.651h-5.02v-2.28h11.458v2.28H56.11l.632-.651V38.69h-2.72ZM65.02 36.41c.716.23 1.336.295 1.86.192.523-.115.99-.491 1.398-1.13l.651-.996.25-.307 4.598-8.89h2.682l-5.767 10.73c-.498.932-1.08 1.647-1.743 2.145a4.083 4.083 0 0 1-2.185.805c-.779.064-1.59-.077-2.433-.422l.69-2.126Zm4.1.097-5.996-11.228h2.912l4.599 9.158-1.514 2.07ZM76.844 38.882c-.23 0-.46-.019-.69-.057a6.206 6.206 0 0 1-.747-.134l.172-2.357c.192.051.383.077.575.077.537 0 .958-.217 1.264-.652.307-.434.524-1.066.652-1.897.14-.843.236-1.87.287-3.084l.192-5.499h10.04v13.412h-2.702V26.908l.632.651h-6.188l.575-.67-.135 3.793a32.52 32.52 0 0 1-.268 3.506c-.14 1.01-.358 1.865-.651 2.568-.281.702-.67 1.232-1.169 1.59-.485.357-1.098.536-1.84.536ZM91.115 38.69l6.016-13.41h2.702l6.035 13.41h-2.874l-5.077-11.974h1.092l-5.077 11.975h-2.817Zm2.874-3.007.728-2.127h7.108l.748 2.127h-8.584Z" fill="#fff"/></svg>