<svg width="80" height="80" fill="none" xmlns="http://www.w3.org/2000/svg"><path fill-rule="evenodd" clip-rule="evenodd" d="M57.031 16.721c6.936 1.61 9.59 5.666 12.916 11.248H57.03V16.72ZM16.497 28.437c1.358 0 2.343.656 2.343 2.188a2.344 2.344 0 0 1-2.337 2.344H2.343a2.344 2.344 0 0 0 0 4.687h21.095a2.343 2.343 0 1 1 .009 4.688H2.344a2.344 2.344 0 1 0 0 4.687H7.5v7.032a2.343 2.343 0 0 0 2.344 2.343h4.711a8.988 8.988 0 0 0 8.804 7.188c4.31 0 7.965-3.05 8.805-7.188H55.96a8.988 8.988 0 0 0 8.805 7.188c4.309 0 7.964-3.05 8.804-7.188h4.086A2.344 2.344 0 0 0 80 54.063V40c0-6.877-7.253-7.333-7.26-7.344H54.688a2.344 2.344 0 0 1-2.344-2.343V16.25h-42.5A2.344 2.344 0 0 0 7.5 18.594v5.156H4.687a2.344 2.344 0 1 0 0 4.688h11.81Zm51.307 23.134a4.298 4.298 0 0 1 0 6.077c-2.699 2.7-7.335.78-7.335-3.039 0-3.817 4.636-5.737 7.335-3.038Zm-41.406 0a4.298 4.298 0 0 1 0 6.077c-2.7 2.7-7.335.78-7.335-3.039 0-3.817 4.636-5.737 7.335-3.038Z" fill="#001110"/></svg>