<svg width="24" height="24" fill="none" xmlns="http://www.w3.org/2000/svg"><path d="m23.253 11.185.01-.007.008-.007.316-.26.007.007.006.013v12.64l-.004.004-.035.025H.407L.4 23.594V.402L.416.4h12.618l.04.03.003.022-.118.119-.015.014-.013.016-.336.414-.016.02-.014.022-.336.543-.005.008-.005.008-.258.466-.009.015-.007.015-.336.75-.012.026-.008.028-.206.724-.006.018-.003.02-.13.697-.005.029v.028l-.053 1.293v.026l.002.025.051.595.002.022.005.022.129.646.003.014.003.013.155.569.006.02.007.018.336.879.013.033.018.03.465.776.01.016.012.016.517.698.011.016.013.014.466.517.016.018.018.016.595.518.017.014.019.013.75.517.023.016.025.013.724.362.017.008.018.007.801.31.03.012.031.007 1.216.258.041.009h1.387l.025-.003 1.009-.13.03-.004.031-.008 1.06-.31.028-.009.027-.012.62-.285.017-.007.015-.009.543-.31.02-.011.018-.014.672-.491Z" stroke="#001110" stroke-width=".8"/><path d="M1.655 2.87V1.656h1.242M1.655 3.724v1.63M1.655 6.207v1.655M1.655 8.69v1.655M1.655 11.173v1.629M1.655 13.655v1.655M1.655 16.138v1.655M1.655 18.62v1.656M1.655 21.103v1.242h1.242M3.724 22.345h1.655M6.207 22.345h1.655M8.69 22.345h1.656M11.173 22.345h1.655M13.655 22.345h1.655M16.138 22.345h1.655M18.621 22.345h1.655M21.104 22.345h1.24v-1.242M22.345 18.362v1.81M22.345 15.62v1.811M22.345 14.69v-1.448l-.647.284-.646.181M20.301 13.914l-.724.103-.75.052M16.655 13.836l.698.181.699.052M14.612 13.086l1.268.57M12.776 11.793l1.112.88M11.327 10.138l.88 1.086M10.345 8.12l.569 1.294M9.93 5.948l.078.699.13.672M10.086 3.724l-.104.698-.051.699M10.267 2.923l.49-1.268H9.31M6.57 1.655h1.81M3.827 1.655h1.81" stroke="#001110" stroke-width=".8"/></svg>