{"asset":{"version":"2.0","generator":"babylon.js glTF exporter for 3dsmax 2022 v20220628.14"},"scene":0,"scenes":[{"nodes":[0]}],"nodes":[{"children":[1,2,3,4,5,6,7,8,9,10,11,12,13],"translation":[-0.00441600056,0.315907985,0.038049303],"name":"Group001"},{"mesh":0,"translation":[-0.0005163574,0.00388751249,-0.1367829],"name":"Cylinder016"},{"mesh":1,"translation":[-0.203089371,-0.145292118,-0.117534332],"name":"Cylinder019"},{"mesh":2,"translation":[-0.0005852051,-0.2327416,-0.117683783],"name":"Box001"},{"mesh":3,"translation":[-0.234514177,-0.224802926,-0.00296763633],"name":"Shape001"},{"mesh":4,"translation":[0.234514177,-0.224192545,-0.00296763633],"name":"Shape002"},{"mesh":5,"translation":[0.200988531,-0.223610327,-0.1174417],"name":"Shape003"},{"mesh":6,"translation":[-0.201116711,-0.223194048,-0.117349096],"rotation":[0.0,8.742278E-08,0.0,1.0],"name":"Shape004"},{"mesh":7,"translation":[0.19236891,-0.232705817,-0.119612306],"name":"Shape005"},{"mesh":8,"translation":[-0.194687024,-0.232705817,-0.119598582],"name":"Shape006"},{"mesh":9,"translation":[-0.00041870118,-0.229060426,0.0375922546],"name":"Cylinder020"},{"mesh":10,"translation":[0.2018611,-0.145292118,-0.117534339],"name":"Cylinder021"},{"mesh":11,"translation":[-0.204022959,-0.07115186,-0.11753092],"name":"Shape007"},{"mesh":12,"translation":[0.2031609,-0.07115186,-0.116586015],"rotation":[0.0,4.371139E-08,1.0,0.0],"scale":[1.0,-1.0,1.0],"name":"Shape008"}],"meshes":[{"primitives":[{"attributes":{"POSITION":1,"NORMAL":2,"TEXCOORD_0":3},"indices":0}],"name":"Cylinder016"},{"primitives":[{"attributes":{"POSITION":5,"NORMAL":6,"TEXCOORD_0":7},"indices":4}],"name":"Cylinder019"},{"primitives":[{"attributes":{"POSITION":9,"NORMAL":10,"TEXCOORD_0":11},"indices":8}],"name":"Box001"},{"primitives":[{"attributes":{"POSITION":13,"NORMAL":14},"indices":12}],"name":"Shape001"},{"primitives":[{"attributes":{"POSITION":16,"NORMAL":17},"indices":15}],"name":"Shape002"},{"primitives":[{"attributes":{"POSITION":19,"NORMAL":20},"indices":18}],"name":"Shape003"},{"primitives":[{"attributes":{"POSITION":22,"NORMAL":23},"indices":21}],"name":"Shape004"},{"primitives":[{"attributes":{"POSITION":25,"NORMAL":26},"indices":24}],"name":"Shape005"},{"primitives":[{"attributes":{"POSITION":28,"NORMAL":29},"indices":27}],"name":"Shape006"},{"primitives":[{"attributes":{"POSITION":31,"NORMAL":32,"TEXCOORD_0":33},"indices":30}],"name":"Cylinder020"},{"primitives":[{"attributes":{"POSITION":35,"NORMAL":36,"TEXCOORD_0":37},"indices":34}],"name":"Cylinder021"},{"primitives":[{"attributes":{"POSITION":39,"NORMAL":40},"indices":38}],"name":"Shape007"},{"primitives":[{"attributes":{"POSITION":42,"NORMAL":43},"indices":41}],"name":"Shape008"}],"accessors":[{"bufferView":0,"componentType":5123,"count":14352,"type":"SCALAR","name":"accessorIndices"},{"bufferView":1,"componentType":5126,"count":2563,"max":[0.242529914,0.233093366,0.141872659],"min":[-0.242529854,-0.233093336,-0.141872659],"type":"VEC3","name":"accessorPositions"},{"bufferView":1,"byteOffset":30756,"componentType":5126,"count":2563,"type":"VEC3","name":"accessorNormals"},{"bufferView":2,"componentType":5126,"count":2563,"type":"VEC2","name":"accessorUVs"},{"bufferView":0,"byteOffset":28704,"componentType":5123,"count":1176,"type":"SCALAR","name":"accessorIndices"},{"bufferView":1,"byteOffset":61512,"componentType":5126,"count":245,"max":[0.009766988,0.08329236,0.007878471],"min":[-0.00976678,-0.08329235,-0.007878469],"type":"VEC3","name":"accessorPositions"},{"bufferView":1,"byteOffset":64452,"componentType":5126,"count":245,"type":"VEC3","name":"accessorNormals"},{"bufferView":2,"byteOffset":20504,"componentType":5126,"count":245,"type":"VEC2","name":"accessorUVs"},{"bufferView":0,"byteOffset":31056,"componentType":5123,"count":36,"type":"SCALAR","name":"accessorIndices"},{"bufferView":1,"byteOffset":67392,"componentType":5126,"count":24,"max":[0.199358255,0.00161009154,0.00856867],"min":[-0.199358255,-0.00161009224,-0.00856867],"type":"VEC3","name":"accessorPositions"},{"bufferView":1,"byteOffset":67680,"componentType":5126,"count":24,"type":"VEC3","name":"accessorNormals"},{"bufferView":2,"byteOffset":22464,"componentType":5126,"count":24,"type":"VEC2","name":"accessorUVs"},{"bufferView":0,"byteOffset":31128,"componentType":5123,"count":1368,"type":"SCALAR","name":"accessorIndices"},{"bufferView":1,"byteOffset":67968,"componentType":5126,"count":228,"max":[0.0106947329,0.006696421,0.0110139195],"min":[-0.0106946724,-0.006696417,-0.01101392],"type":"VEC3","name":"accessorPositions"},{"bufferView":1,"byteOffset":70704,"componentType":5126,"count":228,"type":"VEC3","name":"accessorNormals"},{"bufferView":0,"byteOffset":33864,"componentType":5123,"count":1368,"type":"SCALAR","name":"accessorIndices"},{"bufferView":1,"byteOffset":73440,"componentType":5126,"count":228,"max":[0.0106946724,0.00761576043,0.0110139186],"min":[-0.0106947329,-0.00761575438,-0.0110139214],"type":"VEC3","name":"accessorPositions"},{"bufferView":1,"byteOffset":76176,"componentType":5126,"count":228,"type":"VEC3","name":"accessorNormals"},{"bufferView":0,"byteOffset":36600,"componentType":5123,"count":1368,"type":"SCALAR","name":"accessorIndices"},{"bufferView":1,"byteOffset":78912,"componentType":5126,"count":228,"max":[0.0103206178,0.00662033027,0.0102855535],"min":[-0.01032071,-0.006620326,-0.0102855535],"type":"VEC3","name":"accessorPositions"},{"bufferView":1,"byteOffset":81648,"componentType":5126,"count":228,"type":"VEC3","name":"accessorNormals"},{"bufferView":0,"byteOffset":39336,"componentType":5123,"count":1368,"type":"SCALAR","name":"accessorIndices"},{"bufferView":1,"byteOffset":84384,"componentType":5126,"count":228,"max":[0.0112183234,0.00684720231,0.0100347446],"min":[-0.0112182926,-0.00684720231,-0.0100347446],"type":"VEC3","name":"accessorPositions"},{"bufferView":1,"byteOffset":87120,"componentType":5126,"count":228,"type":"VEC3","name":"accessorNormals"},{"bufferView":0,"byteOffset":42072,"componentType":5123,"count":1296,"type":"SCALAR","name":"accessorIndices"},{"bufferView":1,"byteOffset":89856,"componentType":5126,"count":283,"max":[0.008450272,0.00427503139,0.011034851],"min":[-0.008450211,-0.00427503232,-0.0110348435],"type":"VEC3","name":"accessorPositions"},{"bufferView":1,"byteOffset":93252,"componentType":5126,"count":283,"type":"VEC3","name":"accessorNormals"},{"bufferView":0,"byteOffset":44664,"componentType":5123,"count":1296,"type":"SCALAR","name":"accessorIndices"},{"bufferView":1,"byteOffset":96648,"componentType":5126,"count":283,"max":[0.009359787,0.00427503046,0.01040267],"min":[-0.00935994,-0.00427503232,-0.0104026757],"type":"VEC3","name":"accessorPositions"},{"bufferView":1,"byteOffset":100044,"componentType":5126,"count":283,"type":"VEC3","name":"accessorNormals"},{"bufferView":0,"byteOffset":47256,"componentType":5123,"count":9072,"type":"SCALAR","name":"accessorIndices"},{"bufferView":1,"byteOffset":103440,"componentType":5126,"count":1615,"max":[0.24246791,0.007878478,0.241063327],"min":[-0.24246785,-0.007878478,-0.241063327],"type":"VEC3","name":"accessorPositions"},{"bufferView":1,"byteOffset":122820,"componentType":5126,"count":1615,"type":"VEC3","name":"accessorNormals"},{"bufferView":2,"byteOffset":22656,"componentType":5126,"count":1615,"type":"VEC2","name":"accessorUVs"},{"bufferView":0,"byteOffset":65400,"componentType":5123,"count":1176,"type":"SCALAR","name":"accessorIndices"},{"bufferView":1,"byteOffset":142200,"componentType":5126,"count":245,"max":[0.009766902,0.08329236,0.007878479],"min":[-0.009766866,-0.08329235,-0.007878476],"type":"VEC3","name":"accessorPositions"},{"bufferView":1,"byteOffset":145140,"componentType":5126,"count":245,"type":"VEC3","name":"accessorNormals"},{"bufferView":2,"byteOffset":35576,"componentType":5126,"count":245,"type":"VEC2","name":"accessorUVs"},{"bufferView":0,"byteOffset":67752,"componentType":5123,"count":5184,"type":"SCALAR","name":"accessorIndices"},{"bufferView":1,"byteOffset":148080,"componentType":5126,"count":864,"max":[0.010245678,0.0110428622,0.009765302],"min":[-0.0102455262,-0.01104287,-0.009765299],"type":"VEC3","name":"accessorPositions"},{"bufferView":1,"byteOffset":158448,"componentType":5126,"count":864,"type":"VEC3","name":"accessorNormals"},{"bufferView":0,"byteOffset":78120,"componentType":5123,"count":5112,"type":"SCALAR","name":"accessorIndices"},{"bufferView":1,"byteOffset":168816,"componentType":5126,"count":852,"max":[0.008724349,0.0110428622,0.009765302],"min":[-0.0102456482,-0.01104287,-0.009765299],"type":"VEC3","name":"accessorPositions"},{"bufferView":1,"byteOffset":179040,"componentType":5126,"count":852,"type":"VEC3","name":"accessorNormals"}],"bufferViews":[{"buffer":0,"byteLength":88344,"name":"bufferViewScalar"},{"buffer":0,"byteOffset":88344,"byteLength":189264,"byteStride":12,"name":"bufferViewFloatVec3"},{"buffer":0,"byteOffset":277608,"byteLength":37536,"byteStride":8,"name":"bufferViewFloatVec2"}],"buffers":[{"uri":"kongsberg.bin","byteLength":315144}]}