{"asset":{"version":"2.0","generator":"babylon.js glTF exporter for 3dsmax 2022 v20220628.14"},"scene":0,"scenes":[{"nodes":[0]}],"nodes":[{"children":[1,2,3,4,5,6,7,8,9,10,11,12,13],"translation":[0.0,0.0,-3.051758E-08],"name":"Group001"},{"mesh":0,"translation":[0.00111886789,-0.00102471933,-0.104148075],"name":"Box001"},{"mesh":1,"translation":[0.2107992,0.0109250033,-0.106648184],"name":"Shape007"},{"mesh":2,"translation":[-3.98941047E-05,0.08634334,-0.154759079],"name":"Line009"},{"mesh":3,"translation":[0.000230545062,0.1283174,-0.112931393],"name":"Cylinder003"},{"mesh":4,"translation":[-0.212369829,0.0109249121,-0.106648244],"name":"Shape008"},{"mesh":5,"translation":[0.261867374,0.249566182,-0.122540079],"name":"Shape001"},{"mesh":6,"translation":[-0.261517227,0.249566182,-0.122540057],"name":"Shape002"},{"mesh":7,"translation":[-0.211063936,0.00340377819,-0.106568895],"name":"Shape006"},{"mesh":8,"translation":[0.245611,0.003533066,0.196801022],"name":"Shape004"},{"mesh":9,"translation":[0.211193845,0.00340377819,-0.106568888],"name":"Shape005"},{"mesh":10,"translation":[0.0,-0.000185638433,0.0499777943],"name":"Line007"},{"mesh":11,"translation":[0.0,0.210217744,-0.03756766],"name":"Line008"},{"mesh":12,"translation":[-0.246184424,0.00353291328,0.196800932],"name":"Shape003"}],"meshes":[{"primitives":[{"attributes":{"POSITION":1,"NORMAL":2,"TEXCOORD_0":3},"indices":0}],"name":"Box001"},{"primitives":[{"attributes":{"POSITION":5,"NORMAL":6},"indices":4}],"name":"Shape007"},{"primitives":[{"attributes":{"POSITION":8,"NORMAL":9,"TEXCOORD_0":10},"indices":7}],"name":"Line009"},{"primitives":[{"attributes":{"POSITION":12,"NORMAL":13,"TEXCOORD_0":14},"indices":11}],"name":"Cylinder003"},{"primitives":[{"attributes":{"POSITION":16,"NORMAL":17},"indices":15}],"name":"Shape008"},{"primitives":[{"attributes":{"POSITION":19,"NORMAL":20},"indices":18}],"name":"Shape001"},{"primitives":[{"attributes":{"POSITION":22,"NORMAL":23},"indices":21}],"name":"Shape002"},{"primitives":[{"attributes":{"POSITION":25,"NORMAL":26},"indices":24}],"name":"Shape006"},{"primitives":[{"attributes":{"POSITION":28,"NORMAL":29},"indices":27}],"name":"Shape004"},{"primitives":[{"attributes":{"POSITION":31,"NORMAL":32},"indices":30}],"name":"Shape005"},{"primitives":[{"attributes":{"POSITION":34,"NORMAL":35,"TEXCOORD_0":36},"indices":33}],"name":"Line007"},{"primitives":[{"attributes":{"POSITION":38,"NORMAL":39,"TEXCOORD_0":40},"indices":37}],"name":"Line008"},{"primitives":[{"attributes":{"POSITION":42,"NORMAL":43},"indices":41}],"name":"Shape003"}],"accessors":[{"bufferView":0,"componentType":5123,"count":36,"type":"SCALAR","name":"accessorIndices"},{"bufferView":1,"componentType":5126,"count":24,"max":[0.207645133,0.00245343219,0.00584049],"min":[-0.207645133,-0.00245343219,-0.00584049],"type":"VEC3","name":"accessorPositions"},{"bufferView":1,"byteOffset":288,"componentType":5126,"count":24,"type":"VEC3","name":"accessorNormals"},{"bufferView":2,"componentType":5126,"count":24,"type":"VEC2","name":"accessorUVs"},{"bufferView":0,"byteOffset":72,"componentType":5123,"count":5040,"type":"SCALAR","name":"accessorIndices"},{"bufferView":1,"byteOffset":576,"componentType":5126,"count":840,"max":[0.008373337,0.0125216562,0.007948155],"min":[-0.008373337,-0.0125216562,-0.007948162],"type":"VEC3","name":"accessorPositions"},{"bufferView":1,"byteOffset":10656,"componentType":5126,"count":840,"type":"VEC3","name":"accessorNormals"},{"bufferView":0,"byteOffset":10152,"componentType":5123,"count":2868,"type":"SCALAR","name":"accessorIndices"},{"bufferView":1,"byteOffset":20736,"componentType":5126,"count":544,"max":[0.2181229,0.09299912,0.0570962466],"min":[-0.2181229,-0.09299911,-0.0570962541],"type":"VEC3","name":"accessorPositions"},{"bufferView":1,"byteOffset":27264,"componentType":5126,"count":544,"type":"VEC3","name":"accessorNormals"},{"bufferView":2,"byteOffset":192,"componentType":5126,"count":544,"type":"VEC2","name":"accessorUVs"},{"bufferView":0,"byteOffset":15888,"componentType":5123,"count":1488,"type":"SCALAR","name":"accessorIndices"},{"bufferView":1,"byteOffset":33792,"componentType":5126,"count":338,"max":[0.270977259,0.130207255,0.0180545356],"min":[-0.2709773,-0.130207255,-0.0180545337],"type":"VEC3","name":"accessorPositions"},{"bufferView":1,"byteOffset":37848,"componentType":5126,"count":338,"type":"VEC3","name":"accessorNormals"},{"bufferView":2,"byteOffset":4544,"componentType":5126,"count":338,"type":"VEC2","name":"accessorUVs"},{"bufferView":0,"byteOffset":18864,"componentType":5123,"count":5040,"type":"SCALAR","name":"accessorIndices"},{"bufferView":1,"byteOffset":41904,"componentType":5126,"count":840,"max":[0.0083733825,0.0125216758,0.007948155],"min":[-0.0083733825,-0.0125216758,-0.007948151],"type":"VEC3","name":"accessorPositions"},{"bufferView":1,"byteOffset":51984,"componentType":5126,"count":840,"type":"VEC3","name":"accessorNormals"},{"bufferView":0,"byteOffset":28944,"componentType":5123,"count":8208,"type":"SCALAR","name":"accessorIndices"},{"bufferView":1,"byteOffset":62064,"componentType":5126,"count":1368,"max":[0.00929174852,0.007012482,0.0110520953],"min":[-0.009291779,-0.007012482,-0.0110520981],"type":"VEC3","name":"accessorPositions"},{"bufferView":1,"byteOffset":78480,"componentType":5126,"count":1368,"type":"VEC3","name":"accessorNormals"},{"bufferView":0,"byteOffset":45360,"componentType":5123,"count":8208,"type":"SCALAR","name":"accessorIndices"},{"bufferView":1,"byteOffset":94896,"componentType":5126,"count":1368,"max":[0.00929174852,0.007012482,0.0110520963],"min":[-0.009291779,-0.007012467,-0.0110520944],"type":"VEC3","name":"accessorPositions"},{"bufferView":1,"byteOffset":111312,"componentType":5126,"count":1368,"type":"VEC3","name":"accessorNormals"},{"bufferView":0,"byteOffset":61776,"componentType":5123,"count":4320,"type":"SCALAR","name":"accessorIndices"},{"bufferView":1,"byteOffset":127728,"componentType":5126,"count":720,"max":[0.0136213843,0.007485676,0.0150910374],"min":[-0.0136213843,-0.007485676,-0.01509103],"type":"VEC3","name":"accessorPositions"},{"bufferView":1,"byteOffset":136368,"componentType":5126,"count":720,"type":"VEC3","name":"accessorNormals"},{"bufferView":0,"byteOffset":70416,"componentType":5123,"count":1656,"type":"SCALAR","name":"accessorIndices"},{"bufferView":1,"byteOffset":145008,"componentType":5126,"count":276,"max":[0.009326492,0.00689215865,0.009689458],"min":[-0.009326492,-0.00689215865,-0.00968946051],"type":"VEC3","name":"accessorPositions"},{"bufferView":1,"byteOffset":148320,"componentType":5126,"count":276,"type":"VEC3","name":"accessorNormals"},{"bufferView":0,"byteOffset":73728,"componentType":5123,"count":4320,"type":"SCALAR","name":"accessorIndices"},{"bufferView":1,"byteOffset":151632,"componentType":5126,"count":720,"max":[0.0136213843,0.007485684,0.0150910337],"min":[-0.0136213843,-0.007485684,-0.0150910374],"type":"VEC3","name":"accessorPositions"},{"bufferView":1,"byteOffset":160272,"componentType":5126,"count":720,"type":"VEC3","name":"accessorNormals"},{"bufferView":0,"byteOffset":82368,"componentType":5123,"count":2592,"type":"SCALAR","name":"accessorIndices"},{"bufferView":1,"byteOffset":168912,"componentType":5126,"count":491,"max":[0.253654838,0.008000001,0.2298365],"min":[-0.253654838,-0.008000001,-0.2298365],"type":"VEC3","name":"accessorPositions"},{"bufferView":1,"byteOffset":174804,"componentType":5126,"count":491,"type":"VEC3","name":"accessorNormals"},{"bufferView":2,"byteOffset":7248,"componentType":5126,"count":491,"type":"VEC2","name":"accessorUVs"},{"bufferView":0,"byteOffset":87552,"componentType":5123,"count":5028,"type":"SCALAR","name":"accessorIndices"},{"bufferView":1,"byteOffset":180696,"componentType":5126,"count":933,"max":[0.273969144,0.212061971,0.242246613],"min":[-0.273969144,-0.212061957,-0.242246628],"type":"VEC3","name":"accessorPositions"},{"bufferView":1,"byteOffset":191892,"componentType":5126,"count":933,"type":"VEC3","name":"accessorNormals"},{"bufferView":2,"byteOffset":11176,"componentType":5126,"count":933,"type":"VEC2","name":"accessorUVs"},{"bufferView":0,"byteOffset":97608,"componentType":5123,"count":1728,"type":"SCALAR","name":"accessorIndices"},{"bufferView":1,"byteOffset":203088,"componentType":5126,"count":288,"max":[0.009140382,0.00689215865,0.009689458],"min":[-0.009140382,-0.00689215865,-0.009689461],"type":"VEC3","name":"accessorPositions"},{"bufferView":1,"byteOffset":206544,"componentType":5126,"count":288,"type":"VEC3","name":"accessorNormals"}],"bufferViews":[{"buffer":0,"byteLength":101064,"name":"bufferViewScalar"},{"buffer":0,"byteOffset":101064,"byteLength":210000,"byteStride":12,"name":"bufferViewFloatVec3"},{"buffer":0,"byteOffset":311064,"byteLength":18640,"byteStride":8,"name":"bufferViewFloatVec2"}],"buffers":[{"uri":"rosa.bin","byteLength":329704}]}