{"asset":{"version":"2.0","generator":"babylon.js glTF exporter for 3dsmax 2022 v20220628.14"},"scene":0,"scenes":[{"nodes":[0]}],"nodes":[{"children":[1,2,3,4,5,6,7,8,9,10,11,12],"name":"Group001"},{"mesh":0,"translation":[-4.058838E-06,-0.004235138,-0.116196908],"name":"Box010"},{"mesh":1,"translation":[-0.229283467,0.004508789,0.0127200857],"name":"Shape002"},{"mesh":2,"translation":[0.229043365,0.00480079651,0.012325055],"rotation":[-8.742278E-08,0.0,0.0,1.0],"name":"Shape003"},{"mesh":3,"translation":[-0.219571039,0.268812567,-0.115097538],"name":"Shape004"},{"mesh":4,"translation":[-0.199941546,0.00387756363,-0.117968768],"name":"Shape006"},{"mesh":5,"translation":[0.200941548,0.003987534,-0.117736064],"rotation":[-8.742278E-08,0.0,0.0,1.0],"name":"Shape007"},{"mesh":6,"translation":[0.190888822,-0.00349148572,-0.116613671],"rotation":[0.0,-8.742278E-08,0.0,1.0],"name":"Shape008"},{"mesh":7,"translation":[-0.190015748,-0.00349148572,-0.117883794],"rotation":[-8.742278E-08,-8.742278E-08,-7.642742E-15,1.0],"name":"Shape009"},{"mesh":8,"translation":[0.221084625,0.268812567,-0.115097538],"name":"Shape012"},{"mesh":9,"translation":[0.0,0.0,0.03896183],"name":"Line007"},{"mesh":10,"translation":[0.01034906,0.14262782,-0.116562381],"name":"Cylinder003"},{"mesh":11,"translation":[-1.525879E-08,0.234144241,-0.1286175],"name":"Line008"}],"meshes":[{"primitives":[{"attributes":{"POSITION":1,"NORMAL":2,"TEXCOORD_0":3},"indices":0}],"name":"Box010"},{"primitives":[{"attributes":{"POSITION":5,"NORMAL":6},"indices":4}],"name":"Shape002"},{"primitives":[{"attributes":{"POSITION":8,"NORMAL":9},"indices":7}],"name":"Shape003"},{"primitives":[{"attributes":{"POSITION":11,"NORMAL":12},"indices":10}],"name":"Shape004"},{"primitives":[{"attributes":{"POSITION":14,"NORMAL":15},"indices":13}],"name":"Shape006"},{"primitives":[{"attributes":{"POSITION":17,"NORMAL":18},"indices":16}],"name":"Shape007"},{"primitives":[{"attributes":{"POSITION":20,"NORMAL":21},"indices":19}],"name":"Shape008"},{"primitives":[{"attributes":{"POSITION":23,"NORMAL":24},"indices":22}],"name":"Shape009"},{"primitives":[{"attributes":{"POSITION":26,"NORMAL":27},"indices":25}],"name":"Shape012"},{"primitives":[{"attributes":{"POSITION":29,"NORMAL":30,"TEXCOORD_0":31},"indices":28}],"name":"Line007"},{"primitives":[{"attributes":{"POSITION":33,"NORMAL":34,"TEXCOORD_0":35},"indices":32}],"name":"Cylinder003"},{"primitives":[{"attributes":{"POSITION":37,"NORMAL":38,"TEXCOORD_0":39},"indices":36}],"name":"Line008"}],"accessors":[{"bufferView":0,"componentType":5123,"count":36,"type":"SCALAR","name":"accessorIndices"},{"bufferView":1,"componentType":5126,"count":24,"max":[0.195561156,0.002,0.008002756],"min":[-0.195561156,-0.002,-0.008002756],"type":"VEC3","name":"accessorPositions"},{"bufferView":1,"byteOffset":288,"componentType":5126,"count":24,"type":"VEC3","name":"accessorNormals"},{"bufferView":2,"componentType":5126,"count":24,"type":"VEC2","name":"accessorUVs"},{"bufferView":0,"byteOffset":72,"componentType":5123,"count":2448,"type":"SCALAR","name":"accessorIndices"},{"bufferView":1,"byteOffset":576,"componentType":5126,"count":408,"max":[0.0105446428,0.00682519563,0.0117142573],"min":[-0.0105446326,-0.00682519563,-0.0117142573],"type":"VEC3","name":"accessorPositions"},{"bufferView":1,"byteOffset":5472,"componentType":5126,"count":408,"type":"VEC3","name":"accessorNormals"},{"bufferView":0,"byteOffset":4968,"componentType":5123,"count":2592,"type":"SCALAR","name":"accessorIndices"},{"bufferView":1,"byteOffset":10368,"componentType":5126,"count":432,"max":[0.0114654545,0.007808121,0.0117142573],"min":[-0.0114654424,-0.007808121,-0.0117142573],"type":"VEC3","name":"accessorPositions"},{"bufferView":1,"byteOffset":15552,"componentType":5126,"count":432,"type":"VEC3","name":"accessorNormals"},{"bufferView":0,"byteOffset":10152,"componentType":5123,"count":15480,"type":"SCALAR","name":"accessorIndices"},{"bufferView":1,"byteOffset":20736,"componentType":5126,"count":2580,"max":[0.009387573,0.0199691169,0.0112651521],"min":[-0.009387562,-0.019969102,-0.0112651512],"type":"VEC3","name":"accessorPositions"},{"bufferView":1,"byteOffset":51696,"componentType":5126,"count":2580,"type":"VEC3","name":"accessorNormals"},{"bufferView":0,"byteOffset":41112,"componentType":5123,"count":22320,"type":"SCALAR","name":"accessorIndices"},{"bufferView":1,"byteOffset":82656,"componentType":5126,"count":3720,"max":[0.0118390331,0.00740407966,0.0125000589],"min":[-0.0118390368,-0.00740407966,-0.01250006],"type":"VEC3","name":"accessorPositions"},{"bufferView":1,"byteOffset":127296,"componentType":5126,"count":3720,"type":"VEC3","name":"accessorNormals"},{"bufferView":0,"byteOffset":85752,"componentType":5123,"count":21600,"type":"SCALAR","name":"accessorIndices"},{"bufferView":1,"byteOffset":171936,"componentType":5126,"count":4074,"max":[0.0126429861,0.01072227,0.0109960791],"min":[-0.0126429992,-0.01072227,-0.0109960781],"type":"VEC3","name":"accessorPositions"},{"bufferView":1,"byteOffset":220824,"componentType":5126,"count":4074,"type":"VEC3","name":"accessorNormals"},{"bufferView":0,"byteOffset":128952,"componentType":5123,"count":8640,"type":"SCALAR","name":"accessorIndices"},{"bufferView":1,"byteOffset":269712,"componentType":5126,"count":1440,"max":[0.009964646,0.00598200737,0.0104160663],"min":[-0.009964646,-0.00598200737,-0.0104160709],"type":"VEC3","name":"accessorPositions"},{"bufferView":1,"byteOffset":286992,"componentType":5126,"count":1440,"type":"VEC3","name":"accessorNormals"},{"bufferView":0,"byteOffset":146232,"componentType":5123,"count":8640,"type":"SCALAR","name":"accessorIndices"},{"bufferView":1,"byteOffset":304272,"componentType":5126,"count":1440,"max":[0.009964646,0.00598200271,0.010416056],"min":[-0.009964646,-0.00598200271,-0.01041606],"type":"VEC3","name":"accessorPositions"},{"bufferView":1,"byteOffset":321552,"componentType":5126,"count":1440,"type":"VEC3","name":"accessorNormals"},{"bufferView":0,"byteOffset":163512,"componentType":5123,"count":15480,"type":"SCALAR","name":"accessorIndices"},{"bufferView":1,"byteOffset":338832,"componentType":5126,"count":2580,"max":[0.009387562,0.0199691169,0.0112651531],"min":[-0.009387573,-0.019969102,-0.0112651521],"type":"VEC3","name":"accessorPositions"},{"bufferView":1,"byteOffset":369792,"componentType":5126,"count":2580,"type":"VEC3","name":"accessorNormals"},{"bufferView":0,"byteOffset":194472,"componentType":5123,"count":2880,"type":"SCALAR","name":"accessorIndices"},{"bufferView":1,"byteOffset":400752,"componentType":5126,"count":547,"max":[0.237560868,0.008000002,0.240617231],"min":[-0.237560868,-0.008000002,-0.240617231],"type":"VEC3","name":"accessorPositions"},{"bufferView":1,"byteOffset":407316,"componentType":5126,"count":547,"type":"VEC3","name":"accessorNormals"},{"bufferView":2,"byteOffset":192,"componentType":5126,"count":547,"type":"VEC2","name":"accessorUVs"},{"bufferView":0,"byteOffset":200232,"componentType":5123,"count":1272,"type":"SCALAR","name":"accessorIndices"},{"bufferView":1,"byteOffset":413880,"componentType":5126,"count":300,"max":[0.218441218,0.141973853,0.007878464],"min":[-0.239139318,-0.143860191,-0.007878464],"type":"VEC3","name":"accessorPositions"},{"bufferView":1,"byteOffset":417480,"componentType":5126,"count":300,"type":"VEC3","name":"accessorNormals"},{"bufferView":2,"byteOffset":4568,"componentType":5126,"count":300,"type":"VEC2","name":"accessorUVs"},{"bufferView":0,"byteOffset":202776,"componentType":5123,"count":5172,"type":"SCALAR","name":"accessorIndices"},{"bufferView":1,"byteOffset":421080,"componentType":5126,"count":959,"max":[0.236758351,0.236153319,0.150961533],"min":[-0.2367583,-0.23615329,-0.1509616],"type":"VEC3","name":"accessorPositions"},{"bufferView":1,"byteOffset":432588,"componentType":5126,"count":959,"type":"VEC3","name":"accessorNormals"},{"bufferView":2,"byteOffset":6968,"componentType":5126,"count":959,"type":"VEC2","name":"accessorUVs"}],"bufferViews":[{"buffer":0,"byteLength":213120,"name":"bufferViewScalar"},{"buffer":0,"byteOffset":213120,"byteLength":444096,"byteStride":12,"name":"bufferViewFloatVec3"},{"buffer":0,"byteOffset":657216,"byteLength":14640,"byteStride":8,"name":"bufferViewFloatVec2"}],"buffers":[{"uri":"tony.bin","byteLength":671856}]}