{"asset":{"version":"2.0","generator":"babylon.js glTF exporter for 3dsmax 2022 v20220628.14"},"scene":0,"scenes":[{"nodes":[0]}],"nodes":[{"children":[1,2,3,4,5,6,7,8,9,10],"name":"Group001"},{"mesh":0,"translation":[-0.228004932,0.206455916,-0.121967047],"name":"Cylinder016"},{"mesh":1,"translation":[0.000213722233,0.0828667358,-0.118529946],"name":"Box011"},{"mesh":2,"translation":[2.26058964E-05,0.08679515,0.0413564779],"name":"Cylinder001"},{"mesh":3,"translation":[9.24377455E-05,0.2921693,-0.03437707],"name":"Shape003"},{"mesh":4,"translation":[0.237434015,0.09112876,0.195982426],"name":"Shape006"},{"mesh":5,"translation":[-0.237139255,0.09148772,0.195982426],"name":"Shape007"},{"mesh":6,"translation":[-0.193102658,0.09173731,-0.121775262],"name":"Shape008"},{"mesh":7,"translation":[0.192829534,0.09173732,-0.121775277],"name":"Shape009"},{"mesh":8,"translation":[-0.264267683,0.3234546,-0.121785104],"name":"Shape010"},{"mesh":9,"translation":[0.264441371,0.324900627,-0.121266611],"name":"Shape011"}],"meshes":[{"primitives":[{"attributes":{"POSITION":1,"NORMAL":2,"TEXCOORD_0":3},"indices":0}],"name":"Cylinder016"},{"primitives":[{"attributes":{"POSITION":5,"NORMAL":6,"TEXCOORD_0":7},"indices":4}],"name":"Box011"},{"primitives":[{"attributes":{"POSITION":9,"NORMAL":10,"TEXCOORD_0":11},"indices":8}],"name":"Cylinder001"},{"primitives":[{"attributes":{"POSITION":13,"NORMAL":14,"TEXCOORD_0":15},"indices":12}],"name":"Shape003"},{"primitives":[{"attributes":{"POSITION":17,"NORMAL":18},"indices":16}],"name":"Shape006"},{"primitives":[{"attributes":{"POSITION":20,"NORMAL":21},"indices":19}],"name":"Shape007"},{"primitives":[{"attributes":{"POSITION":23,"NORMAL":24},"indices":22}],"name":"Shape008"},{"primitives":[{"attributes":{"POSITION":26,"NORMAL":27},"indices":25}],"name":"Shape009"},{"primitives":[{"attributes":{"POSITION":29,"NORMAL":30},"indices":28}],"name":"Shape010"},{"primitives":[{"attributes":{"POSITION":32,"NORMAL":33},"indices":31}],"name":"Shape011"}],"accessors":[{"bufferView":0,"componentType":5123,"count":624,"type":"SCALAR","name":"accessorIndices"},{"bufferView":1,"componentType":5126,"count":186,"max":[0.5002224,0.123167992,0.007878474],"min":[-0.0441765226,-0.123167984,-0.007878474],"type":"VEC3","name":"accessorPositions"},{"bufferView":1,"byteOffset":2232,"componentType":5126,"count":186,"type":"VEC3","name":"accessorNormals"},{"bufferView":2,"componentType":5126,"count":186,"type":"VEC2","name":"accessorUVs"},{"bufferView":0,"byteOffset":1248,"componentType":5123,"count":36,"type":"SCALAR","name":"accessorIndices"},{"bufferView":1,"byteOffset":4464,"componentType":5126,"count":24,"max":[0.196007848,0.00203134166,0.008771721],"min":[-0.196007848,-0.00203134073,-0.008771721],"type":"VEC3","name":"accessorPositions"},{"bufferView":1,"byteOffset":4752,"componentType":5126,"count":24,"type":"VEC3","name":"accessorNormals"},{"bufferView":2,"byteOffset":1488,"componentType":5126,"count":24,"type":"VEC2","name":"accessorUVs"},{"bufferView":0,"byteOffset":1320,"componentType":5123,"count":13956,"type":"SCALAR","name":"accessorIndices"},{"bufferView":1,"byteOffset":5040,"componentType":5126,"count":2473,"max":[0.24481453,0.008000035,0.233702436],"min":[-0.24481453,-0.008000037,-0.233702436],"type":"VEC3","name":"accessorPositions"},{"bufferView":1,"byteOffset":34716,"componentType":5126,"count":2473,"type":"VEC3","name":"accessorNormals"},{"bufferView":2,"byteOffset":1680,"componentType":5126,"count":2473,"type":"VEC2","name":"accessorUVs"},{"bufferView":0,"byteOffset":29232,"componentType":5123,"count":7962,"type":"SCALAR","name":"accessorIndices"},{"bufferView":1,"byteOffset":64392,"componentType":5126,"count":1463,"max":[0.280621678,0.20687516,0.239274979],"min":[-0.280621678,-0.206875145,-0.239274979],"type":"VEC3","name":"accessorPositions"},{"bufferView":1,"byteOffset":81948,"componentType":5126,"count":1463,"type":"VEC3","name":"accessorNormals"},{"bufferView":2,"byteOffset":21464,"componentType":5126,"count":1463,"type":"VEC2","name":"accessorUVs"},{"bufferView":0,"byteOffset":45156,"componentType":5123,"count":5472,"type":"SCALAR","name":"accessorIndices"},{"bufferView":1,"byteOffset":99504,"componentType":5126,"count":912,"max":[0.008568619,0.005995278,0.009342118],"min":[-0.008568619,-0.005995278,-0.009342118],"type":"VEC3","name":"accessorPositions"},{"bufferView":1,"byteOffset":110448,"componentType":5126,"count":912,"type":"VEC3","name":"accessorNormals"},{"bufferView":0,"byteOffset":56100,"componentType":5123,"count":5472,"type":"SCALAR","name":"accessorIndices"},{"bufferView":1,"byteOffset":121392,"componentType":5126,"count":912,"max":[0.008553162,0.00554005476,0.009342118],"min":[-0.008553162,-0.00554005476,-0.009342118],"type":"VEC3","name":"accessorPositions"},{"bufferView":1,"byteOffset":132336,"componentType":5126,"count":912,"type":"VEC3","name":"accessorNormals"},{"bufferView":0,"byteOffset":67044,"componentType":5123,"count":5472,"type":"SCALAR","name":"accessorIndices"},{"bufferView":1,"byteOffset":143280,"componentType":5126,"count":912,"max":[0.009752289,0.00595748145,0.00915622],"min":[-0.009752289,-0.005957474,-0.00915622],"type":"VEC3","name":"accessorPositions"},{"bufferView":1,"byteOffset":154224,"componentType":5126,"count":912,"type":"VEC3","name":"accessorNormals"},{"bufferView":0,"byteOffset":77988,"componentType":5123,"count":5472,"type":"SCALAR","name":"accessorIndices"},{"bufferView":1,"byteOffset":165168,"componentType":5126,"count":912,"max":[0.009752289,0.005957474,0.00915623549],"min":[-0.009752304,-0.00595748145,-0.00915623549],"type":"VEC3","name":"accessorPositions"},{"bufferView":1,"byteOffset":176112,"componentType":5126,"count":912,"type":"VEC3","name":"accessorNormals"},{"bufferView":0,"byteOffset":88932,"componentType":5123,"count":5472,"type":"SCALAR","name":"accessorIndices"},{"bufferView":1,"byteOffset":187056,"componentType":5126,"count":912,"max":[0.008710908,0.006727997,0.008906022],"min":[-0.008710908,-0.00672801258,-0.008906022],"type":"VEC3","name":"accessorPositions"},{"bufferView":1,"byteOffset":198000,"componentType":5126,"count":912,"type":"VEC3","name":"accessorNormals"},{"bufferView":0,"byteOffset":99876,"componentType":5123,"count":5472,"type":"SCALAR","name":"accessorIndices"},{"bufferView":1,"byteOffset":208944,"componentType":5126,"count":912,"max":[0.00927694,0.00701029226,0.009129487],"min":[-0.009276917,-0.0070103,-0.009129487],"type":"VEC3","name":"accessorPositions"},{"bufferView":1,"byteOffset":219888,"componentType":5126,"count":912,"type":"VEC3","name":"accessorNormals"}],"bufferViews":[{"buffer":0,"byteLength":110820,"name":"bufferViewScalar"},{"buffer":0,"byteOffset":110820,"byteLength":230832,"byteStride":12,"name":"bufferViewFloatVec3"},{"buffer":0,"byteOffset":341652,"byteLength":33168,"byteStride":8,"name":"bufferViewFloatVec2"}],"buffers":[{"uri":"tulpan.bin","byteLength":374820}]}